<?xml version="1.0" encoding="UTF-8"?>
<svg xmlns="http://www.w3.org/2000/svg" xmlns:xlink="http://www.w3.org/1999/xlink" width="248px" height="105px" viewBox="0 0 248 105" version="1.1">
<g id="surface1">
<path style=" stroke:none;fill-rule:nonzero;fill:rgb(0%,0%,0%);fill-opacity:1;" d="M 50.519531 16.695312 C 49.171875 16.757812 47.960938 16.898438 45.148438 17.335938 C 43.300781 17.617188 42.707031 17.699219 41.664062 17.8125 C 41.398438 17.847656 41.089844 17.886719 40.976562 17.914062 C 39.339844 18.265625 38.152344 19.566406 37.378906 21.847656 C 36.941406 23.136719 36.65625 24.550781 36.300781 27.140625 L 36.277344 27.304688 L 35.960938 27.433594 C 35.011719 27.8125 34.183594 28.023438 33.4375 28.089844 C 33.140625 28.113281 32.59375 28.097656 32.359375 28.0625 C 31.925781 27.992188 31.773438 27.976562 31.414062 27.976562 C 30.667969 27.972656 30.085938 28.109375 29.421875 28.449219 C 28.054688 29.144531 26.960938 30.597656 26.042969 32.925781 C 25.503906 34.300781 25.132812 35.53125 24.378906 38.480469 C 23.972656 40.09375 23.734375 40.964844 23.476562 41.789062 C 23.265625 42.488281 23.238281 42.640625 23.222656 43.136719 C 23.214844 43.417969 23.21875 43.546875 23.242188 43.714844 C 23.429688 45.132812 24.285156 46.40625 25.984375 47.792969 C 27.105469 48.710938 28.542969 49.640625 31.246094 51.207031 C 33.820312 52.691406 34.464844 53.066406 35.167969 53.496094 L 35.402344 53.640625 L 35.535156 53.84375 C 36.277344 55.007812 37.570312 56.222656 39.480469 57.566406 C 39.929688 57.882812 40.699219 58.394531 41.335938 58.796875 L 41.808594 59.097656 L 41.929688 59.3125 C 42.179688 59.753906 42.554688 60.277344 42.863281 60.628906 L 42.972656 60.746094 L 42.972656 63.136719 L 42.746094 63.191406 C 41.246094 63.5625 40.128906 64.296875 39.320312 65.449219 C 38.9375 65.992188 38.570312 66.757812 38.320312 67.539062 C 38.226562 67.820312 38.171875 68.027344 37.949219 68.878906 C 37.804688 69.445312 37.679688 69.832031 37.578125 70.035156 C 37.386719 70.425781 37.074219 70.5625 36.261719 70.613281 C 36.097656 70.621094 35.867188 70.640625 35.746094 70.65625 C 34.902344 70.761719 34.332031 71.042969 33.558594 71.753906 C 32.488281 72.734375 31.691406 74.03125 31.363281 75.339844 C 31.238281 75.828125 31.191406 76.210938 31.160156 77.070312 C 31.152344 77.351562 31.136719 77.613281 31.136719 77.648438 C 31.136719 77.707031 31.136719 77.710938 31.210938 77.722656 L 31.292969 77.734375 L 31.386719 78.527344 C 31.4375 78.964844 31.484375 79.320312 31.484375 79.324219 C 31.488281 79.328125 31.871094 79.0625 32.335938 78.730469 C 32.800781 78.402344 33.203125 78.117188 33.230469 78.097656 C 33.277344 78.066406 33.28125 78.066406 33.429688 78.09375 C 33.550781 78.117188 33.582031 78.117188 33.59375 78.097656 C 33.601562 78.089844 33.628906 78.007812 33.65625 77.914062 C 33.695312 77.753906 33.707031 77.734375 33.8125 77.628906 C 33.988281 77.449219 34.0625 77.3125 34.1875 76.996094 C 34.480469 76.214844 35.15625 75.304688 35.882812 74.71875 L 36.09375 74.546875 L 36.421875 74.558594 C 37.285156 74.589844 38.214844 74.445312 38.910156 74.167969 C 40.058594 73.71875 40.914062 72.886719 41.539062 71.621094 C 41.785156 71.109375 41.929688 70.738281 42.269531 69.738281 C 42.546875 68.914062 42.671875 68.625 42.882812 68.308594 C 43.066406 68.03125 43.238281 67.910156 43.566406 67.820312 C 43.820312 67.753906 44.097656 67.726562 44.554688 67.710938 L 44.980469 67.703125 L 45.105469 67.78125 C 45.230469 67.855469 45.375 67.929688 45.53125 67.996094 L 45.601562 68.019531 L 45.339844 68.195312 C 44.75 68.585938 44.222656 69.113281 43.902344 69.621094 C 43.40625 70.421875 43.324219 71.351562 43.65625 72.390625 C 43.734375 72.640625 43.828125 72.867188 43.996094 73.222656 C 44.078125 73.390625 44.160156 73.582031 44.183594 73.644531 C 44.230469 73.785156 44.222656 73.835938 44.09375 74.183594 C 43.945312 74.585938 43.894531 74.933594 43.933594 75.328125 C 44.003906 76.078125 44.3125 76.820312 45.082031 78.101562 C 45.832031 79.34375 46.613281 80.183594 47.351562 80.539062 C 47.695312 80.707031 47.992188 80.773438 48.347656 80.757812 C 48.609375 80.75 48.753906 80.714844 48.957031 80.605469 C 49.109375 80.53125 50.527344 79.542969 50.527344 79.515625 C 50.53125 79.5 49.617188 78.496094 49.316406 78.171875 C 49.148438 77.992188 49.023438 77.792969 48.761719 77.273438 C 48.480469 76.707031 48.179688 76.023438 48.019531 75.550781 L 47.960938 75.386719 L 48.011719 75.269531 C 48.097656 75.082031 48.230469 74.660156 48.277344 74.4375 C 48.347656 74.105469 48.367188 73.917969 48.367188 73.5625 C 48.363281 73.03125 48.300781 72.628906 48.132812 72.113281 L 48.046875 71.855469 L 48.191406 71.777344 C 48.269531 71.734375 48.425781 71.65625 48.535156 71.597656 C 48.847656 71.433594 49.066406 71.304688 49.332031 71.128906 C 49.644531 70.917969 49.824219 70.773438 50.074219 70.535156 C 50.421875 70.195312 50.667969 69.859375 50.875 69.445312 L 50.988281 69.210938 L 51.054688 69.265625 C 51.089844 69.292969 51.207031 69.394531 51.316406 69.488281 L 51.515625 69.660156 L 51.570312 70.105469 C 51.6875 71.023438 51.824219 71.621094 52.03125 72.097656 C 52.34375 72.8125 52.90625 73.320312 53.800781 73.683594 C 53.910156 73.726562 54.253906 73.851562 54.570312 73.953125 C 55.386719 74.222656 55.726562 74.378906 57.019531 75.042969 C 57.824219 75.460938 58.1875 75.632812 58.71875 75.867188 C 59.597656 76.25 60.140625 76.445312 60.554688 76.515625 C 60.863281 76.574219 60.898438 76.570312 62.238281 76.34375 C 62.921875 76.230469 63.472656 76.128906 63.472656 76.125 C 63.472656 76.113281 63.160156 75.671875 62.789062 75.140625 C 62.125 74.203125 62.101562 74.167969 61.867188 73.9375 C 61.601562 73.671875 61.269531 73.414062 60.785156 73.09375 C 60.613281 72.984375 60.347656 72.808594 60.1875 72.703125 C 60.027344 72.601562 59.625 72.324219 59.285156 72.089844 C 57.679688 70.984375 57.085938 70.625 56.207031 70.242188 L 55.890625 70.105469 L 55.878906 69.847656 C 55.871094 69.703125 55.859375 69.378906 55.847656 69.125 C 55.832031 68.621094 55.800781 68.378906 55.734375 68.136719 C 55.464844 67.175781 54.371094 66.007812 51.828125 63.972656 L 51.371094 63.605469 L 51.371094 61.640625 L 51.664062 61.511719 C 53.007812 60.921875 54.296875 60.210938 56.511719 58.847656 C 56.902344 58.605469 57.570312 58.195312 58 57.925781 C 60.21875 56.558594 61.257812 55.992188 62.394531 55.53125 C 62.8125 55.363281 63.183594 55.179688 63.476562 55.007812 C 65.257812 53.945312 66.261719 52.203125 66.394531 49.953125 L 66.40625 49.746094 L 66.574219 49.679688 C 66.976562 49.511719 67.480469 49.359375 68.085938 49.21875 C 70.582031 48.640625 72.210938 47.078125 72.792969 44.707031 C 72.976562 43.964844 73.050781 43.28125 73.050781 42.339844 C 73.050781 41.078125 72.898438 39.808594 72.539062 38.042969 C 72.34375 37.074219 72.175781 36.367188 71.605469 34.082031 C 70.816406 30.929688 70.605469 29.890625 70.5 28.542969 C 70.488281 28.355469 70.464844 28.117188 70.449219 28.015625 C 70.285156 26.882812 69.871094 25.90625 69.203125 25.058594 C 69.023438 24.835938 68.554688 24.367188 68.316406 24.175781 C 68.089844 23.996094 67.65625 23.707031 67.398438 23.5625 C 66.320312 22.964844 64.976562 22.601562 63.453125 22.503906 C 63.09375 22.480469 62.152344 22.480469 61.789062 22.503906 C 61 22.554688 60.179688 22.664062 59.410156 22.820312 C 59.265625 22.847656 59.140625 22.875 59.125 22.875 C 59.097656 22.875 58.785156 22.476562 58.597656 22.199219 C 58.394531 21.898438 58.265625 21.679688 58.132812 21.394531 C 57.984375 21.085938 57.914062 20.882812 57.804688 20.496094 C 57.761719 20.316406 57.691406 20.078125 57.652344 19.960938 C 57.175781 18.578125 56.121094 17.601562 54.570312 17.097656 C 53.511719 16.757812 52.164062 16.621094 50.519531 16.695312 Z M 51.992188 18.09375 C 54.054688 18.191406 55.328125 18.726562 56.011719 19.773438 C 56.199219 20.066406 56.320312 20.355469 56.429688 20.769531 C 56.523438 21.140625 56.574219 21.304688 56.660156 21.535156 C 56.9375 22.242188 57.324219 22.894531 57.898438 23.609375 C 58.097656 23.855469 58.515625 24.332031 58.597656 24.40625 L 58.640625 24.445312 L 58.9375 24.367188 C 60.28125 24.027344 61.605469 23.867188 62.855469 23.890625 C 63.910156 23.914062 64.757812 24.042969 65.5625 24.300781 C 67.550781 24.941406 68.742188 26.242188 69.039062 28.105469 C 69.058594 28.226562 69.089844 28.515625 69.109375 28.75 C 69.230469 30.207031 69.445312 31.246094 70.359375 34.894531 C 71.148438 38.050781 71.441406 39.488281 71.585938 41.027344 C 71.65625 41.785156 71.664062 42.789062 71.605469 43.347656 C 71.453125 44.746094 71.039062 45.742188 70.289062 46.511719 C 69.664062 47.164062 68.828125 47.605469 67.753906 47.855469 C 66.777344 48.082031 66.144531 48.300781 65.296875 48.710938 L 64.988281 48.863281 L 64.988281 49.453125 C 64.988281 49.824219 64.980469 50.109375 64.96875 50.222656 C 64.820312 51.4375 64.398438 52.363281 63.660156 53.097656 C 63.191406 53.570312 62.652344 53.910156 61.855469 54.234375 C 60.621094 54.738281 59.484375 55.359375 57.042969 56.867188 C 54.210938 58.617188 53.324219 59.136719 52.101562 59.746094 C 51.382812 60.105469 50.886719 60.328125 50.292969 60.550781 L 49.980469 60.667969 L 49.96875 62.242188 C 49.964844 63.105469 49.960938 60.324219 49.957031 56.058594 L 49.953125 48.300781 L 49.90625 48.292969 C 49.722656 48.257812 43.28125 47.164062 43.273438 47.167969 C 43.273438 47.167969 43.519531 47.257812 43.828125 47.355469 L 44.390625 47.539062 L 44.386719 55.675781 C 44.382812 60.152344 44.378906 62.988281 44.375 61.984375 L 44.371094 60.15625 L 44.113281 59.898438 C 43.734375 59.507812 43.507812 59.214844 43.222656 58.738281 C 43.140625 58.59375 43.011719 58.382812 42.941406 58.273438 L 42.816406 58.070312 L 42.269531 57.722656 C 39.007812 55.652344 37.40625 54.277344 36.570312 52.851562 L 36.445312 52.632812 L 36.21875 52.492188 C 35.515625 52.054688 34.558594 51.492188 32.710938 50.425781 C 30.289062 49.03125 29.453125 48.523438 28.421875 47.835938 C 26.527344 46.566406 25.4375 45.523438 24.933594 44.496094 C 24.730469 44.078125 24.640625 43.75 24.621094 43.347656 C 24.609375 42.964844 24.632812 42.832031 24.867188 42.046875 C 25.085938 41.332031 25.25 40.730469 25.746094 38.796875 C 26.3125 36.59375 26.566406 35.691406 26.917969 34.640625 C 27.597656 32.59375 28.304688 31.242188 29.136719 30.398438 C 29.761719 29.765625 30.40625 29.445312 31.1875 29.382812 C 31.382812 29.367188 31.804688 29.382812 31.894531 29.40625 C 31.992188 29.4375 32.476562 29.492188 32.722656 29.503906 C 33.984375 29.566406 35.375 29.234375 37.207031 28.4375 C 37.386719 28.355469 37.546875 28.285156 37.558594 28.273438 C 37.570312 28.261719 37.589844 28.144531 37.609375 28.007812 C 37.769531 26.667969 37.984375 25.292969 38.179688 24.324219 C 38.804688 21.257812 39.730469 19.695312 41.167969 19.3125 C 41.332031 19.269531 41.425781 19.253906 42.164062 19.171875 C 42.753906 19.101562 43.367188 19.015625 44.398438 18.863281 C 44.90625 18.785156 45.6875 18.667969 46.128906 18.601562 C 48.957031 18.175781 50.621094 18.03125 51.992188 18.09375 Z M 51.992188 18.09375 "/>
<path style=" stroke:none;fill-rule:nonzero;fill:rgb(0%,0%,0%);fill-opacity:1;" d="M 50.371094 46.625 C 50.371094 49.058594 50.375 49.382812 50.398438 49.390625 C 50.421875 49.398438 50.421875 49.4375 50.421875 49.582031 C 50.421875 49.910156 50.496094 50.40625 50.601562 50.792969 C 51.078125 52.582031 52.425781 54.007812 54.1875 54.589844 C 55.371094 54.976562 56.695312 54.941406 57.859375 54.484375 C 58.589844 54.203125 59.199219 53.804688 59.75 53.253906 C 60.625 52.378906 61.148438 51.3125 61.320312 50.050781 C 61.363281 49.742188 61.359375 49.023438 61.316406 48.710938 C 61.175781 47.664062 60.789062 46.753906 60.144531 45.941406 C 59.953125 45.703125 59.519531 45.277344 59.277344 45.089844 C 58.328125 44.355469 57.316406 43.984375 56.089844 43.914062 C 55.976562 43.910156 55.882812 43.894531 55.882812 43.890625 C 55.882812 43.878906 54.753906 43.875 53.125 43.875 L 50.371094 43.875 Z M 50.371094 46.625 "/>
<path style=" stroke:none;fill-rule:nonzero;fill:rgb(0%,0%,0%);fill-opacity:1;" d="M 113.570312 49.363281 C 113.199219 49.398438 112.96875 49.453125 112.757812 49.5625 C 112.429688 49.734375 112.257812 50.023438 112.148438 50.578125 L 112.109375 50.773438 L 112.105469 54.289062 L 112.097656 57.800781 L 113.8125 57.800781 L 113.8125 53.355469 L 115.144531 53.355469 L 115.144531 52.570312 L 113.8125 52.570312 L 113.8125 51.714844 C 113.8125 50.828125 113.824219 50.644531 113.886719 50.476562 C 113.992188 50.199219 114.171875 50.136719 114.902344 50.136719 L 115.300781 50.136719 L 115.300781 49.347656 L 114.46875 49.351562 C 114.007812 49.351562 113.601562 49.359375 113.570312 49.363281 Z M 113.570312 49.363281 "/>
<path style=" stroke:none;fill-rule:nonzero;fill:rgb(0%,0%,0%);fill-opacity:1;" d="M 94.128906 53.855469 L 94.128906 57.800781 L 96.28125 57.800781 L 96.28125 54.601562 L 97.375 54.59375 C 98.40625 54.589844 98.46875 54.589844 98.65625 54.550781 C 99.023438 54.480469 99.363281 54.34375 99.613281 54.171875 C 99.742188 54.085938 99.972656 53.871094 100.070312 53.738281 C 100.230469 53.535156 100.34375 53.296875 100.410156 53.007812 C 100.449219 52.855469 100.453125 52.800781 100.453125 52.4375 C 100.453125 52 100.433594 51.863281 100.332031 51.558594 C 100.066406 50.789062 99.34375 50.210938 98.390625 50.019531 C 97.925781 49.921875 97.925781 49.921875 95.964844 49.914062 L 94.128906 49.910156 Z M 96.976562 50.910156 C 97.292969 50.949219 97.617188 51.082031 97.828125 51.25 C 98.144531 51.519531 98.308594 51.902344 98.308594 52.382812 C 98.308594 52.636719 98.277344 52.816406 98.191406 53 C 98.078125 53.238281 97.921875 53.378906 97.652344 53.484375 C 97.394531 53.585938 97.25 53.605469 96.742188 53.613281 L 96.28125 53.625 L 96.28125 50.890625 L 96.550781 50.890625 C 96.695312 50.890625 96.886719 50.898438 96.976562 50.910156 Z M 96.976562 50.910156 "/>
<path style=" stroke:none;fill-rule:nonzero;fill:rgb(0%,0%,0%);fill-opacity:1;" d="M 71.4375 53.472656 L 71.4375 55.054688 L 77.71875 55.054688 L 77.71875 75.460938 L 84.3125 75.460938 L 84.320312 65.261719 L 84.324219 55.0625 L 90.597656 55.054688 L 90.597656 51.886719 L 71.4375 51.886719 Z M 71.4375 53.472656 "/>
<path style=" stroke:none;fill-rule:nonzero;fill:rgb(0%,0%,0%);fill-opacity:1;" d="M 117.703125 52.414062 C 117.070312 52.472656 116.535156 52.710938 116.117188 53.117188 C 115.847656 53.386719 115.6875 53.625 115.5625 53.949219 C 115.308594 54.59375 115.304688 55.492188 115.546875 56.183594 C 115.816406 56.953125 116.445312 57.597656 117.160156 57.851562 C 117.617188 58.015625 118.234375 58.039062 118.78125 57.921875 C 119.523438 57.761719 120.136719 57.296875 120.445312 56.65625 C 120.699219 56.132812 120.78125 55.46875 120.679688 54.800781 C 120.574219 54.113281 120.292969 53.5625 119.800781 53.09375 C 119.242188 52.554688 118.5625 52.335938 117.703125 52.414062 Z M 118.269531 53.15625 C 118.570312 53.304688 118.777344 53.785156 118.855469 54.519531 C 118.882812 54.796875 118.882812 55.683594 118.855469 55.957031 C 118.824219 56.25 118.757812 56.570312 118.691406 56.753906 C 118.582031 57.027344 118.484375 57.164062 118.324219 57.253906 C 118.238281 57.300781 118.214844 57.300781 118.066406 57.300781 C 117.914062 57.300781 117.890625 57.300781 117.804688 57.25 C 117.394531 57.023438 117.210938 56.367188 117.210938 55.160156 C 117.210938 54.570312 117.253906 54.097656 117.351562 53.753906 C 117.445312 53.417969 117.648438 53.171875 117.886719 53.113281 C 117.988281 53.089844 118.167969 53.109375 118.269531 53.15625 Z M 118.269531 53.15625 "/>
<path style=" stroke:none;fill-rule:nonzero;fill:rgb(0%,0%,0%);fill-opacity:1;" d="M 128.425781 52.414062 C 128.179688 52.449219 128.027344 52.511719 127.894531 52.636719 C 127.78125 52.742188 127.734375 52.832031 127.6875 53 C 127.652344 53.132812 127.652344 53.191406 127.652344 55.472656 L 127.652344 57.800781 L 128.492188 57.800781 L 128.496094 55.964844 L 128.503906 54.125 L 129.238281 55.960938 C 129.820312 57.417969 129.980469 57.796875 130.003906 57.796875 C 130.027344 57.796875 130.183594 57.414062 130.773438 55.890625 C 131.183594 54.839844 131.523438 53.976562 131.527344 53.972656 C 131.53125 53.96875 131.539062 54.828125 131.539062 55.882812 L 131.539062 57.800781 L 133.21875 57.800781 L 133.214844 55.4375 C 133.207031 53.070312 133.207031 53.070312 133.171875 52.960938 C 133.074219 52.671875 132.890625 52.511719 132.574219 52.4375 C 132.40625 52.394531 131.972656 52.394531 131.816406 52.4375 C 131.574219 52.503906 131.433594 52.617188 131.285156 52.867188 C 131.210938 52.988281 130.953125 53.613281 130.570312 54.570312 C 130.5 54.75 130.441406 54.898438 130.433594 54.898438 C 130.425781 54.898438 130.265625 54.519531 130.078125 54.050781 C 129.886719 53.589844 129.699219 53.148438 129.660156 53.070312 C 129.472656 52.6875 129.289062 52.515625 128.984375 52.4375 C 128.851562 52.40625 128.578125 52.390625 128.425781 52.414062 Z M 128.425781 52.414062 "/>
<path style=" stroke:none;fill-rule:nonzero;fill:rgb(0%,0%,0%);fill-opacity:1;" d="M 136.457031 52.414062 C 136.082031 52.476562 135.855469 52.683594 135.652344 53.144531 C 135.621094 53.210938 135.289062 54.230469 134.914062 55.410156 C 134.539062 56.585938 134.210938 57.605469 134.191406 57.675781 L 134.144531 57.800781 L 134.59375 57.796875 L 135.042969 57.796875 L 135.125 57.484375 C 135.175781 57.320312 135.230469 57.101562 135.257812 57.007812 L 135.304688 56.839844 L 136.179688 56.84375 L 137.050781 56.847656 L 137.144531 57.144531 C 137.195312 57.308594 137.261719 57.523438 137.292969 57.621094 L 137.347656 57.800781 L 138.242188 57.800781 C 138.984375 57.800781 139.132812 57.796875 139.125 57.777344 C 139.121094 57.765625 138.785156 56.734375 138.375 55.480469 C 137.972656 54.230469 137.609375 53.148438 137.578125 53.070312 C 137.460938 52.785156 137.296875 52.589844 137.101562 52.492188 C 136.941406 52.410156 136.675781 52.378906 136.457031 52.414062 Z M 136.53125 54.996094 C 136.699219 55.609375 136.835938 56.113281 136.832031 56.117188 C 136.828125 56.121094 136.535156 56.121094 136.179688 56.117188 L 135.535156 56.113281 L 135.867188 54.996094 C 136.050781 54.386719 136.203125 53.882812 136.210938 53.882812 C 136.21875 53.882812 136.359375 54.386719 136.53125 54.996094 Z M 136.53125 54.996094 "/>
<path style=" stroke:none;fill-rule:nonzero;fill:rgb(0%,0%,0%);fill-opacity:1;" d="M 140.714844 52.417969 C 140.347656 52.492188 140.148438 52.730469 140.09375 53.183594 C 140.082031 53.277344 140.074219 54.113281 140.074219 55.566406 L 140.074219 57.800781 L 140.917969 57.800781 L 140.917969 56.101562 L 140.925781 54.402344 L 141.789062 55.828125 C 142.265625 56.609375 142.710938 57.332031 142.777344 57.425781 C 142.941406 57.660156 143.152344 57.867188 143.285156 57.933594 C 143.421875 58 143.625 58.015625 143.773438 57.96875 C 143.894531 57.929688 144.011719 57.832031 144.0625 57.722656 C 144.152344 57.542969 144.152344 57.539062 144.152344 54.972656 L 144.152344 52.570312 L 143.3125 52.570312 L 143.304688 55.179688 L 142.683594 54.167969 C 142.34375 53.609375 142.011719 53.09375 141.957031 53.015625 C 141.742188 52.726562 141.492188 52.523438 141.25 52.445312 C 141.101562 52.398438 140.871094 52.390625 140.714844 52.417969 Z M 140.714844 52.417969 "/>
<path style=" stroke:none;fill-rule:nonzero;fill:rgb(0%,0%,0%);fill-opacity:1;" d="M 147.625 52.414062 C 146.996094 52.484375 146.507812 52.710938 146.085938 53.136719 C 145.792969 53.429688 145.59375 53.753906 145.460938 54.144531 C 145.210938 54.867188 145.242188 55.800781 145.527344 56.472656 C 145.863281 57.25 146.488281 57.773438 147.296875 57.941406 C 147.535156 57.996094 148.015625 58.011719 148.253906 57.972656 C 148.90625 57.871094 149.449219 57.519531 149.8125 56.972656 C 149.890625 56.855469 150.066406 56.527344 150.066406 56.5 C 150.066406 56.496094 149.984375 56.441406 149.878906 56.382812 C 149.773438 56.324219 149.625 56.238281 149.546875 56.191406 L 149.40625 56.109375 L 149.351562 56.25 C 149.261719 56.492188 149.152344 56.65625 148.972656 56.835938 C 148.734375 57.070312 148.503906 57.171875 148.210938 57.171875 C 147.921875 57.171875 147.730469 57.097656 147.550781 56.917969 C 147.304688 56.664062 147.175781 56.1875 147.148438 55.390625 C 147.109375 54.1875 147.417969 53.398438 147.996094 53.226562 C 148.554688 53.066406 149.019531 53.367188 149.238281 54.023438 L 149.285156 54.160156 L 149.398438 54.097656 C 150 53.757812 150.011719 53.753906 150 53.714844 C 149.976562 53.621094 149.8125 53.3125 149.71875 53.1875 C 149.433594 52.800781 148.976562 52.535156 148.429688 52.441406 C 148.234375 52.40625 147.8125 52.390625 147.625 52.414062 Z M 147.625 52.414062 "/>
<path style=" stroke:none;fill-rule:nonzero;fill:rgb(0%,0%,0%);fill-opacity:1;" d="M 102.136719 52.589844 C 101.988281 52.605469 101.789062 52.664062 101.695312 52.71875 C 101.585938 52.785156 101.453125 52.9375 101.410156 53.058594 C 101.3125 53.3125 101.3125 53.25 101.308594 55.082031 C 101.304688 56.300781 101.308594 56.824219 101.320312 56.945312 C 101.375 57.371094 101.527344 57.605469 101.808594 57.714844 C 102.027344 57.796875 102.109375 57.800781 103.5625 57.800781 L 104.925781 57.800781 L 104.925781 57.015625 L 104.101562 57.011719 C 103.289062 57.007812 103.269531 57.007812 103.191406 56.96875 C 103.117188 56.9375 103.097656 56.917969 103.058594 56.828125 L 103.007812 56.726562 L 103.003906 56.152344 L 103 55.582031 L 104.644531 55.582031 L 104.644531 54.792969 L 102.996094 54.792969 L 103.003906 54.230469 C 103.011719 53.625 103.019531 53.5625 103.109375 53.46875 C 103.195312 53.375 103.261719 53.367188 104.082031 53.359375 L 104.835938 53.355469 L 104.835938 52.570312 L 103.550781 52.570312 C 102.839844 52.574219 102.203125 52.582031 102.136719 52.589844 Z M 102.136719 52.589844 "/>
<path style=" stroke:none;fill-rule:nonzero;fill:rgb(0%,0%,0%);fill-opacity:1;" d="M 106.273438 55.183594 L 106.273438 57.800781 L 107.882812 57.800781 L 107.882812 53.308594 L 107.925781 53.296875 C 108.0625 53.261719 108.390625 53.3125 108.574219 53.398438 C 108.882812 53.546875 109.007812 53.789062 109.007812 54.230469 C 109.007812 54.480469 108.980469 54.613281 108.894531 54.777344 C 108.785156 54.992188 108.554688 55.140625 108.234375 55.214844 L 108.070312 55.253906 L 108.078125 55.3125 C 108.082031 55.34375 108.347656 55.914062 108.671875 56.585938 L 109.257812 57.800781 L 110.25 57.800781 C 110.792969 57.800781 111.242188 57.796875 111.242188 57.796875 C 111.242188 57.792969 110.917969 57.285156 110.519531 56.671875 C 110.125 56.058594 109.789062 55.527344 109.769531 55.496094 L 109.734375 55.441406 L 109.828125 55.414062 C 110.046875 55.34375 110.300781 55.179688 110.429688 55.035156 C 110.679688 54.742188 110.777344 54.179688 110.664062 53.726562 C 110.574219 53.386719 110.394531 53.136719 110.082031 52.929688 C 109.910156 52.816406 109.742188 52.742188 109.519531 52.683594 C 109.152344 52.585938 109.105469 52.582031 107.632812 52.574219 L 106.273438 52.566406 Z M 106.273438 55.183594 "/>
<path style=" stroke:none;fill-rule:nonzero;fill:rgb(0%,0%,0%);fill-opacity:1;" d="M 121.871094 52.582031 C 121.867188 52.585938 121.863281 53.765625 121.863281 55.199219 L 121.863281 57.800781 L 123.472656 57.800781 L 123.472656 53.324219 L 123.519531 53.304688 C 123.582031 53.277344 123.855469 53.296875 124 53.332031 C 124.285156 53.40625 124.464844 53.570312 124.558594 53.820312 C 124.613281 53.984375 124.628906 54.367188 124.574219 54.5625 C 124.488281 54.914062 124.285156 55.101562 123.863281 55.210938 C 123.722656 55.246094 123.671875 55.269531 123.667969 55.289062 C 123.664062 55.308594 123.929688 55.875 124.261719 56.558594 L 124.859375 57.800781 L 126.851562 57.800781 L 126.828125 57.761719 C 126.8125 57.742188 126.472656 57.210938 126.074219 56.589844 C 125.671875 55.964844 125.34375 55.453125 125.347656 55.449219 C 125.347656 55.445312 125.417969 55.417969 125.496094 55.386719 C 125.765625 55.289062 126.019531 55.082031 126.128906 54.890625 C 126.261719 54.652344 126.3125 54.398438 126.300781 54.046875 C 126.292969 53.832031 126.289062 53.785156 126.238281 53.640625 C 126.171875 53.441406 126.09375 53.304688 125.960938 53.167969 C 125.640625 52.820312 125.195312 52.640625 124.511719 52.585938 C 124.277344 52.566406 121.890625 52.5625 121.871094 52.582031 Z M 121.871094 52.582031 "/>
<path style=" stroke:none;fill-rule:nonzero;fill:rgb(0%,0%,0%);fill-opacity:1;" d="M 151.933594 52.589844 C 151.785156 52.605469 151.585938 52.664062 151.488281 52.71875 C 151.378906 52.785156 151.246094 52.9375 151.203125 53.058594 C 151.105469 53.3125 151.109375 53.25 151.101562 55.070312 C 151.097656 56.261719 151.101562 56.8125 151.117188 56.9375 C 151.167969 57.371094 151.316406 57.597656 151.621094 57.722656 C 151.8125 57.796875 151.921875 57.800781 153.359375 57.800781 L 154.71875 57.800781 L 154.71875 57.015625 L 153.894531 57.011719 C 153.089844 57.007812 153.066406 57.003906 152.984375 56.96875 C 152.820312 56.894531 152.796875 56.769531 152.796875 56.082031 L 152.796875 55.582031 L 154.441406 55.582031 L 154.441406 54.792969 L 152.792969 54.792969 L 152.796875 54.234375 C 152.808594 53.632812 152.820312 53.546875 152.90625 53.464844 C 153 53.375 153.058594 53.367188 153.875 53.359375 L 154.632812 53.355469 L 154.632812 52.570312 L 153.34375 52.570312 C 152.632812 52.574219 151.996094 52.582031 151.933594 52.589844 Z M 151.933594 52.589844 "/>
<path style=" stroke:none;fill-rule:nonzero;fill:rgb(0%,0%,0%);fill-opacity:1;" d="M 174.964844 62.582031 L 174.964844 65.625 L 174.453125 65.625 C 173.542969 65.625 172.875 65.699219 172.171875 65.871094 C 170.050781 66.390625 168.761719 67.746094 168.472656 69.761719 C 168.300781 70.960938 168.445312 72.148438 168.863281 73.023438 C 169.523438 74.390625 170.835938 75.207031 172.757812 75.449219 C 173.308594 75.519531 173.421875 75.519531 175.839844 75.519531 L 178.191406 75.519531 L 178.195312 67.527344 L 178.203125 59.535156 L 174.964844 59.535156 Z M 174.964844 70.574219 L 174.964844 74.152344 L 174.730469 74.144531 C 174.175781 74.117188 173.640625 73.992188 173.257812 73.800781 C 172.734375 73.542969 172.367188 73.09375 172.152344 72.464844 C 171.953125 71.855469 171.863281 70.9375 171.917969 70.0625 C 172.035156 68.292969 172.621094 67.429688 173.917969 67.113281 C 174.175781 67.050781 174.550781 67 174.84375 66.996094 L 174.964844 66.992188 Z M 174.964844 70.574219 "/>
<path style=" stroke:none;fill-rule:nonzero;fill:rgb(0%,0%,0%);fill-opacity:1;" d="M 190.542969 66.363281 C 190.542969 72.78125 190.546875 73.207031 190.578125 73.398438 C 190.667969 73.996094 190.796875 74.378906 191.007812 74.695312 C 191.246094 75.042969 191.679688 75.300781 192.242188 75.425781 C 192.648438 75.515625 192.707031 75.519531 194.433594 75.523438 L 196.046875 75.53125 L 196.046875 74.042969 L 195.597656 74.042969 C 194.917969 74.042969 194.613281 74.007812 194.351562 73.898438 C 194.035156 73.765625 193.886719 73.542969 193.796875 73.058594 C 193.765625 72.90625 193.761719 72.5 193.757812 66.214844 L 193.753906 59.535156 L 190.535156 59.535156 Z M 190.542969 66.363281 "/>
<path style=" stroke:none;fill-rule:nonzero;fill:rgb(0%,0%,0%);fill-opacity:1;" d="M 90.125 67.640625 L 90.132812 75.449219 L 92.535156 75.457031 L 94.933594 75.460938 L 94.933594 62.023438 L 95.054688 62.007812 C 95.21875 61.988281 95.78125 61.992188 96.011719 62.019531 C 96.730469 62.09375 97.289062 62.339844 97.683594 62.75 C 97.972656 63.050781 98.164062 63.425781 98.265625 63.890625 C 98.332031 64.199219 98.351562 64.410156 98.351562 64.792969 C 98.347656 65.773438 98.09375 66.480469 97.558594 66.980469 C 97.167969 67.34375 96.574219 67.613281 95.855469 67.75 C 95.71875 67.777344 95.589844 67.800781 95.570312 67.804688 C 95.53125 67.8125 95.53125 67.820312 95.53125 67.949219 L 95.53125 68.089844 L 97.300781 71.761719 C 98.273438 73.78125 99.074219 75.441406 99.078125 75.445312 C 99.085938 75.453125 100.429688 75.460938 102.058594 75.457031 L 105.03125 75.449219 L 102.746094 71.945312 C 101.492188 70.015625 100.464844 68.433594 100.476562 68.421875 C 100.484375 68.421875 100.589844 68.382812 100.710938 68.339844 C 101.394531 68.117188 101.886719 67.828125 102.328125 67.382812 C 102.609375 67.101562 102.757812 66.902344 102.917969 66.589844 C 103.214844 66.011719 103.34375 65.441406 103.363281 64.640625 C 103.371094 64.199219 103.355469 63.921875 103.304688 63.59375 C 102.957031 61.464844 101.25 60.1875 98.355469 59.898438 C 97.78125 59.835938 97.503906 59.832031 93.816406 59.832031 L 90.121094 59.832031 Z M 90.125 67.640625 "/>
<path style=" stroke:none;fill-rule:nonzero;fill:rgb(0%,0%,0%);fill-opacity:1;" d="M 110.191406 59.84375 C 109.894531 59.875 109.753906 59.894531 109.566406 59.929688 C 108.546875 60.136719 107.957031 60.625 107.667969 61.515625 C 107.5625 61.820312 107.503906 62.148438 107.441406 62.660156 C 107.414062 62.898438 107.398438 71.734375 107.425781 72.28125 C 107.46875 73.101562 107.59375 73.695312 107.828125 74.15625 C 108.179688 74.859375 108.78125 75.238281 109.769531 75.390625 C 110.222656 75.457031 110.464844 75.460938 114.414062 75.460938 L 118.238281 75.460938 L 118.238281 73.117188 L 115.980469 73.109375 C 113.996094 73.105469 113.699219 73.101562 113.554688 73.074219 C 112.957031 72.96875 112.734375 72.796875 112.605469 72.34375 C 112.515625 72.019531 112.515625 72.007812 112.507812 70.355469 L 112.5 68.808594 L 117.417969 68.808594 L 117.417969 66.464844 L 112.5 66.464844 L 112.507812 64.949219 C 112.511719 63.644531 112.519531 63.40625 112.542969 63.265625 C 112.648438 62.660156 112.820312 62.421875 113.246094 62.28125 C 113.570312 62.179688 113.609375 62.179688 115.90625 62.179688 L 117.996094 62.179688 L 117.996094 59.832031 L 114.125 59.835938 C 111.996094 59.835938 110.226562 59.84375 110.191406 59.84375 Z M 110.191406 59.84375 "/>
<path style=" stroke:none;fill-rule:nonzero;fill:rgb(0%,0%,0%);fill-opacity:1;" d="M 124.863281 59.851562 C 124.46875 59.886719 124.050781 59.976562 123.769531 60.085938 C 122.746094 60.476562 122.289062 61.304688 122.195312 62.929688 C 122.171875 63.339844 122.171875 71.949219 122.195312 72.363281 C 122.257812 73.488281 122.519531 74.253906 122.992188 74.71875 C 123.429688 75.148438 124.101562 75.382812 125.066406 75.445312 C 125.25 75.453125 126.75 75.460938 129.183594 75.460938 L 133.007812 75.460938 L 133.007812 73.117188 L 130.914062 73.117188 C 128.746094 73.117188 128.488281 73.105469 128.167969 73.042969 C 127.722656 72.953125 127.519531 72.785156 127.394531 72.414062 C 127.28125 72.070312 127.28125 72.042969 127.273438 70.34375 L 127.265625 68.808594 L 132.183594 68.808594 L 132.175781 66.472656 L 129.722656 66.46875 L 127.265625 66.464844 L 127.273438 64.949219 C 127.28125 63.640625 127.285156 63.40625 127.3125 63.265625 C 127.417969 62.644531 127.585938 62.414062 128.035156 62.277344 C 128.339844 62.179688 128.394531 62.179688 130.671875 62.179688 L 132.761719 62.179688 L 132.761719 59.832031 L 128.890625 59.835938 C 126.761719 59.835938 124.949219 59.84375 124.863281 59.851562 Z M 124.863281 59.851562 "/>
<path style=" stroke:none;fill-rule:nonzero;fill:rgb(0%,0%,0%);fill-opacity:1;" d="M 139.691406 68.054688 L 139.699219 75.519531 L 141.867188 75.519531 L 141.875 70.839844 L 141.878906 66.15625 L 143.84375 70.839844 L 145.8125 75.519531 L 146.011719 75.527344 L 146.210938 75.53125 L 150.234375 65.726562 L 150.238281 75.53125 L 154.40625 75.53125 L 154.40625 60.585938 L 152.359375 60.589844 L 150.308594 60.59375 L 148.644531 64.605469 C 147.730469 66.8125 146.976562 68.617188 146.96875 68.617188 C 146.964844 68.617188 146.207031 66.8125 145.285156 64.605469 L 143.617188 60.59375 L 141.652344 60.589844 L 139.691406 60.585938 Z M 139.691406 68.054688 "/>
<path style=" stroke:none;fill-rule:nonzero;fill:rgb(0%,0%,0%);fill-opacity:1;" d="M 161.515625 65.3125 C 160.148438 65.398438 159.054688 65.875 158.210938 66.746094 C 157.53125 67.449219 157.113281 68.335938 156.960938 69.394531 C 156.882812 69.941406 156.878906 70.65625 156.949219 71.222656 C 157.046875 71.964844 157.273438 72.667969 157.589844 73.25 C 158.097656 74.160156 158.851562 74.914062 159.695312 75.355469 C 160.5625 75.8125 161.523438 75.96875 162.703125 75.851562 C 163.90625 75.734375 164.898438 75.289062 165.664062 74.523438 C 166.039062 74.148438 166.273438 73.824219 166.503906 73.351562 C 166.824219 72.699219 166.972656 72.082031 167.019531 71.199219 C 167.066406 70.339844 166.933594 69.390625 166.660156 68.660156 C 166.296875 67.6875 165.664062 66.835938 164.847656 66.21875 C 163.929688 65.527344 162.832031 65.226562 161.515625 65.3125 Z M 162.269531 66.683594 C 162.84375 66.875 163.21875 67.523438 163.40625 68.632812 C 163.511719 69.261719 163.546875 69.75 163.546875 70.691406 C 163.546875 71.625 163.511719 72.117188 163.40625 72.722656 C 163.25 73.640625 162.933594 74.257812 162.507812 74.46875 C 162.332031 74.558594 162.246094 74.578125 162.015625 74.578125 C 161.753906 74.578125 161.609375 74.535156 161.414062 74.410156 C 160.839844 74.035156 160.527344 73.148438 160.402344 71.558594 C 160.367188 71.128906 160.375 69.792969 160.414062 69.34375 C 160.554688 67.671875 160.953125 66.8125 161.671875 66.648438 C 161.832031 66.613281 162.101562 66.628906 162.269531 66.683594 Z M 162.269531 66.683594 "/>
<path style=" stroke:none;fill-rule:nonzero;fill:rgb(0%,0%,0%);fill-opacity:1;" d="M 182.625 65.652344 C 182.117188 65.71875 181.714844 65.917969 181.496094 66.191406 C 181.296875 66.4375 181.183594 66.757812 181.109375 67.253906 C 181.082031 67.433594 181.078125 67.726562 181.074219 70.308594 C 181.070312 73.203125 181.074219 73.691406 181.128906 74.019531 C 181.21875 74.523438 181.390625 74.890625 181.636719 75.101562 C 181.839844 75.273438 182.140625 75.40625 182.484375 75.46875 C 182.792969 75.523438 183.125 75.53125 185.539062 75.527344 L 187.9375 75.519531 L 187.941406 74.785156 L 187.945312 74.042969 L 186.472656 74.039062 C 184.839844 74.03125 184.871094 74.03125 184.636719 73.914062 C 184.507812 73.847656 184.433594 73.753906 184.378906 73.582031 C 184.3125 73.375 184.308594 73.226562 184.308594 72.257812 L 184.308594 71.3125 L 187.417969 71.3125 L 187.417969 69.824219 L 184.304688 69.824219 L 184.308594 68.8125 C 184.320312 67.703125 184.320312 67.671875 184.429688 67.453125 C 184.507812 67.292969 184.613281 67.214844 184.847656 67.148438 C 184.929688 67.125 185.15625 67.121094 186.363281 67.113281 L 187.78125 67.105469 L 187.785156 66.363281 L 187.789062 65.625 L 185.292969 65.625 C 183.332031 65.628906 182.753906 65.632812 182.625 65.652344 Z M 182.625 65.652344 "/>
<path style=" stroke:none;fill-rule:nonzero;fill:rgb(0%,0%,0%);fill-opacity:1;" d="M 199.109375 65.636719 C 199.082031 65.640625 199.003906 65.652344 198.933594 65.660156 C 198.738281 65.6875 198.492188 65.753906 198.347656 65.824219 C 197.855469 66.050781 197.613281 66.433594 197.488281 67.175781 C 197.457031 67.355469 197.453125 67.535156 197.453125 70.550781 C 197.453125 73.964844 197.453125 73.878906 197.542969 74.257812 C 197.703125 74.90625 198.035156 75.257812 198.644531 75.421875 C 199.015625 75.519531 198.898438 75.519531 201.710938 75.523438 L 204.304688 75.53125 L 204.304688 74.042969 L 202.839844 74.039062 C 201.527344 74.03125 201.363281 74.027344 201.246094 74 C 200.910156 73.921875 200.785156 73.796875 200.707031 73.464844 C 200.683594 73.347656 200.675781 73.207031 200.667969 72.320312 L 200.664062 71.3125 L 203.777344 71.3125 L 203.777344 69.824219 L 200.664062 69.824219 L 200.667969 68.832031 C 200.679688 67.75 200.683594 67.695312 200.78125 67.476562 C 200.867188 67.289062 201.03125 67.179688 201.320312 67.128906 C 201.386719 67.121094 201.921875 67.113281 202.789062 67.113281 L 204.148438 67.113281 L 204.148438 65.625 L 201.652344 65.625 C 200.273438 65.628906 199.132812 65.632812 199.109375 65.636719 Z M 199.109375 65.636719 "/>
<path style=" stroke:none;fill-rule:nonzero;fill:rgb(0%,0%,0%);fill-opacity:1;" d="M 206.847656 70.574219 L 206.847656 75.519531 L 208.367188 75.527344 L 209.886719 75.53125 L 209.886719 67.015625 L 209.96875 67 C 210.089844 66.984375 210.390625 66.988281 210.578125 67.011719 C 211.433594 67.105469 211.929688 67.570312 212.039062 68.386719 C 212.054688 68.492188 212.054688 68.65625 212.050781 68.863281 C 212.039062 69.257812 211.996094 69.460938 211.863281 69.730469 C 211.632812 70.203125 211.199219 70.488281 210.484375 70.636719 C 210.375 70.664062 210.277344 70.683594 210.277344 70.683594 C 210.273438 70.683594 210.269531 70.726562 210.273438 70.773438 C 210.273438 70.859375 210.359375 71.046875 211.398438 73.195312 L 212.519531 75.519531 L 214.40625 75.527344 C 215.441406 75.527344 216.289062 75.527344 216.289062 75.523438 C 216.289062 75.519531 215.636719 74.519531 214.84375 73.300781 C 214.046875 72.082031 213.40625 71.074219 213.414062 71.066406 C 213.421875 71.058594 213.496094 71.035156 213.578125 71.007812 C 213.792969 70.9375 214.160156 70.753906 214.328125 70.628906 C 214.941406 70.179688 215.238281 69.5 215.238281 68.574219 C 215.238281 67.933594 215.101562 67.425781 214.796875 66.972656 C 214.667969 66.785156 214.339844 66.460938 214.128906 66.320312 C 213.609375 65.972656 213.03125 65.789062 212.144531 65.664062 C 211.949219 65.640625 211.644531 65.636719 209.382812 65.628906 L 206.84375 65.625 Z M 206.847656 70.574219 "/>
</g>
</svg>
